<svg aria-hidden="true" style="position: absolute; width: 0; height: 0; overflow: hidden;" version="1.1" xmlns="http://www.w3.org/2000/svg" xmlns:xlink="http://www.w3.org/1999/xlink">
<defs>
<symbol id="icon-logo" viewBox="0 0 53 32">
<path d="M34.007 16.079l0.974 2.248c0.18 0.414 0.676 0.61 1.108 0.438 0.433-0.17 0.639-0.645 0.459-1.059l-0.974-2.247-1.568 0.62z"></path>
<path d="M34.657 17.578v0z"></path>
<path d="M31.952 11.335v0z"></path>
<path d="M33.158 6.778c0 1.194-1.012 2.163-2.261 2.163-1.25 0-2.262-0.968-2.262-2.163s1.013-2.162 2.262-2.162c1.248 0 2.261 0.968 2.261 2.162z"></path>
<path d="M32.027 6.778c0 0.598-0.506 1.082-1.13 1.082s-1.132-0.484-1.132-1.082c0-0.597 0.507-1.081 1.132-1.081s1.13 0.484 1.13 1.081z"></path>
<path d="M29.311 8.32l-3.094 7.139-0.776 3.204 0.522 0.207 1.821-2.79 0.433-0.999c-0.338-0.781 0.049-1.676 0.866-1.999l1.794-4.142c-0.61-0.005-1.162-0.241-1.567-0.62z"></path>
<path d="M32.482 8.319c-0.405 0.38-0.957 0.616-1.568 0.621l2.661 6.14 1.567-0.62-2.66-6.14z"></path>
<path d="M31.745 3.535v-2.433c-0-0.448-0.381-0.811-0.848-0.811-0.468 0-0.848 0.362-0.848 0.811l0 2.433h1.696z"></path>
<path d="M30.897 4.616c0.145 0 0.286 0.014 0.423 0.039v-1.12h-0.848v1.12c0.138-0.025 0.279-0.039 0.425-0.039z"></path>
<path d="M19.121 19.764h-2.821v-19.474h2.822c0.623 0 1.128 0.485 1.128 1.082v17.311h-0c-0 0.598-0.505 1.081-1.129 1.081z"></path>
<path d="M18.98 1.913c0.234 0 0.423-0.182 0.423-0.406s-0.19-0.406-0.423-0.406c-0.234 0-0.423 0.182-0.423 0.406s0.189 0.406 0.423 0.406z"></path>
<path d="M22.224 11.786c0 0.223 0.19 0.406 0.423 0.406s0.423-0.182 0.423-0.406c0 0.223 0.19 0.406 0.423 0.406s0.423-0.182 0.423-0.406c0 0.223-0.189 0.406-0.423 0.406s-0.423-0.182-0.423-0.406c0 0.223-0.189 0.406-0.423 0.406s-0.423-0.182-0.423-0.406z"></path>
<path d="M22.789 0.29c-0.311 0-0.564 0.243-0.564 0.542v-0 11.36l0.846 3.246 0.847-3.246v-11.36c0-0.298-0.253-0.541-0.564-0.541l-0.564-0z"></path>
</symbol>
<symbol id="burger-menu" viewBox="0 0 36 32">
<path d="M0 0h36v4h-36v-4zM12 14h24v4h-24v-4zM0 28h36v4h-36v-4z"></path>
</symbol>
<symbol id="close-button" viewBox="0 0 32 32">
<path fill="none" stroke-linejoin="round" stroke-linecap="round" stroke-miterlimit="4" stroke-width="2.6667" d="M24 8l-16 16M8 8l16 16"></path>
</symbol>
<symbol id="icon-arrow" viewBox="0 0 64 32">
<path d="M0 15.999c0-0.982 0.796-1.778 1.778-1.778h56.889c0.982 0 1.778 0.796 1.778 1.778s-0.796 1.778-1.778 1.778h-56.889c-0.982 0-1.778-0.796-1.778-1.778z"></path>
<path d="M44.965 2.298c0.694-0.694 1.82-0.694 2.514 0l13.701 13.702-13.701 13.701c-0.694 0.694-1.82 0.694-2.514 0s-0.694-1.82 0-2.514l11.188-11.187-11.188-11.187c-0.694-0.694-0.694-1.82 0-2.514z"></path>
</symbol>
<symbol id="icon-ok" viewBox="0 0 32 32">
<path fill="#f3f3f3" style="fill: var(--color1, #f3f3f3)" d="M5.333 0.916h21.333c2.946 0 5.333 2.388 5.333 5.333v20.35c0 2.946-2.388 5.333-5.333 5.333h-21.333c-2.946 0-5.333-2.388-5.333-5.333v-20.35c0-2.946 2.388-5.333 5.333-5.333z"></path>
<path fill="#333" style="fill: var(--color2, #333)" d="M9.563 16.156c-0.498-0.464-1.307-0.464-1.805 0s-0.498 1.217 0 1.681l4.513 4.203c0.5 0.466 1.311 0.464 1.809-0.004l10.165-9.552c0.496-0.466 0.493-1.219-0.008-1.681s-1.309-0.459-1.805 0.007l-9.263 8.704-3.606-3.358z"></path>
</symbol>
<symbol id="icon-location" viewBox="0 0 32 32">
<path d="M16.063 28.136c-0.168-0-0.326-0.044-0.462-0.122l0.005 0.002c-5.434-3.074-9.043-8.814-9.043-15.397 0-0.002 0-0.005 0-0.007v0q0-0.193 0.004-0.384c0.063-2.842 1.121-5.236 3.063-6.922 1.717-1.487 4.002-2.307 6.434-2.307s4.716 0.819 6.431 2.307c1.944 1.688 3.004 4.079 3.063 6.922v0c0 0.125 0.004 0.256 0.004 0.384 0 0.003 0 0.006 0 0.009 0 3.34-0.93 6.462-2.544 9.123l0.044-0.078c-1.614 2.66-3.823 4.808-6.453 6.304l-0.088 0.046c-0.132 0.075-0.289 0.119-0.457 0.119h-0zM16.063 4.875c-1.981 0-3.829 0.656-5.203 1.849-1.533 1.329-2.369 3.246-2.418 5.545 0 0.114-0.004 0.229-0.004 0.344 0 0.002 0 0.004 0 0.005 0 5.698 3.025 10.689 7.556 13.455l0.069 0.039c2.224-1.36 4.039-3.181 5.353-5.341l0.040-0.070c1.402-2.307 2.232-5.097 2.232-8.080 0-0.003 0-0.006 0-0.009v0c0-0.115 0-0.23-0.004-0.344-0.049-2.299-0.886-4.216-2.418-5.545-1.375-1.192-3.223-1.849-5.203-1.849z"></path>
<path d="M16.087 18.538c-3.256 0-5.895-2.639-5.895-5.895s2.639-5.895 5.895-5.895c3.256 0 5.895 2.639 5.895 5.895v0c-0.004 3.254-2.641 5.891-5.895 5.895h-0zM16.087 8.623c-2.22 0-4.020 1.8-4.020 4.020s1.8 4.020 4.020 4.020c2.22 0 4.020-1.8 4.020-4.020 0-0 0-0 0-0.001v0c-0.004-2.218-1.802-4.015-4.020-4.018h-0z"></path>
</symbol>
<symbol id="icon-envelope" viewBox="0 0 47 32">
<path fill="none" stroke="#fff" style="stroke: var(--color1, #fff)" stroke-linejoin="miter" stroke-linecap="butt" stroke-miterlimit="4" stroke-width="2.3273" d="M23.678 17.925l-0-0-0.013 0.009c-0.081 0.055-0.198 0.094-0.325 0.094h-0.010c-0.185 0-0.303-0.063-0.342-0.095l-0.002-0.002-19.788-16.767h40.25l-19.771 16.761zM29.192 18.878l14.477 11.958h-40.807l14.509-12.047 2.891 2.451c0.852 0.717 1.947 1.096 3.076 1.096s2.223-0.381 3.076-1.101l0.003-0.002 2.775-2.355zM14.051 15.975l-12.887 10.702v-21.622l12.887 10.92zM45.382 5.146v21.547l-12.868-10.631 12.868-10.916z"></path>
</symbol>
<symbol id="icon-phone" viewBox="0 0 34 32">
<path fill="#fff" style="fill: var(--color1, #fff)" d="M32.006 25.254l1.983-0.259-0.009-0.067-0.013-0.066-1.961 0.392zM31.531 26.61l1.409 1.42 0.006-0.005-1.414-1.414zM27.023 31.084l-1.409-1.419-0.040 0.040-0.038 0.042 1.487 1.338zM26.226 31.661l-0.869-1.801-0.001 0 0.87 1.801zM25.26 31.966v2h0.142l0.141-0.020-0.283-1.98zM25.056 31.983l0.198 1.99 0.001-0-0.199-1.99zM19.006 30.695v0zM14.277 28.102v0zM8.65 23.356l1.422-1.406-0.018-0.018-1.404 1.424zM4.718 18.881v0zM2.209 14.932v0zM0.040 6.746l-1.98-0.283-0.020 0.141v0.142h2zM0.921 4.983l1.338 1.487 0.039-0.035 0.037-0.037-1.414-1.414zM5.429 0.475v0zM7.87 0.881l1.769-0.933-0.038-0.072-0.044-0.069-1.687 1.074zM11.497 7.763l-1.769 0.933 0.013 0.024 0.013 0.024 1.743-0.981zM11.090 10.034v0zM9.429 11.695v0zM9.26 12.169h-2v0.189l0.035 0.185 1.965-0.374zM9.87 13.797l1.789-0.894-0.007-0.013-0.007-0.013-1.776 0.921zM13.531 18.474l1.43-1.399-0.015-0.016-0.016-0.015-1.399 1.43zM16.243 20.898v0zM19.446 22.661l0.393-1.961-0.001-0-0.391 1.961zM19.87 22.746l-0.393 1.961 0.194 0.039h0.198v-2zM20.090 22.695l0.632 1.897 0.001-0-0.633-1.897zM20.311 22.576l1.414 1.414 0.012-0.013-1.426-1.402zM22.243 20.61l-1.328-1.495-0.051 0.045-0.048 0.048 1.426 1.402zM24.582 20.271l-1.029 1.715 0.475 0.285h0.554v-2zM24.616 20.271l1.017-1.722-0.471-0.278h-0.547v2zM31.158 24.135l1.053-1.7-0.018-0.011-0.018-0.011-1.017 1.722zM30.022 25.513c-0.003-0.020-0.006-0.095 0.028-0.191 0.033-0.093 0.075-0.135 0.066-0.126l2.829 2.828c0.804-0.804 1.195-1.867 1.043-3.029l-3.966 0.518zM30.122 25.191l-4.508 4.474 2.818 2.839 4.508-4.474-2.818-2.839zM25.536 29.747c-0 0-0.011 0.012-0.038 0.031s-0.072 0.048-0.141 0.082l1.738 3.603c0.518-0.25 1.007-0.587 1.414-1.040l-2.973-2.676zM25.356 29.86c-0.168 0.081-0.292 0.114-0.379 0.126l0.565 3.96c0.546-0.078 1.065-0.249 1.553-0.484l-1.74-3.602zM25.26 29.966c-0.149 0-0.346 0.021-0.402 0.027l0.398 3.98c0.026-0.003 0.047-0.005 0.065-0.006s0.031-0.003 0.040-0.004c0.004-0 0.006-0 0.007-0.001s-0.001 0-0.006 0c-0.004 0-0.014 0.001-0.027 0.002-0.007 0-0.017 0.001-0.028 0.001s-0.027 0.001-0.047 0.001v-4zM24.858 29.993c-0.021 0.002-0.095 0.007-0.242 0.007v4c0.215 0 0.434-0.007 0.639-0.027l-0.397-3.98zM24.616 30c-0.265 0-0.829-0.052-1.782-0.197l-0.605 3.954c0.968 0.148 1.793 0.243 2.387 0.243v-4zM22.834 29.803c-0.74-0.113-1.749-0.411-3.062-0.955l-1.532 3.695c1.467 0.608 2.807 1.033 3.989 1.214l0.605-3.954zM19.772 28.847c-1.24-0.514-2.704-1.31-4.4-2.42l-2.189 3.348c1.829 1.196 3.517 2.128 5.057 2.767l1.532-3.695zM15.371 26.428c-1.612-1.054-3.379-2.535-5.299-4.478l-2.844 2.812c2.057 2.080 4.041 3.763 5.955 5.014l2.189-3.348zM10.054 21.932c-1.524-1.502-2.759-2.912-3.721-4.23l-3.23 2.359c1.117 1.53 2.503 3.103 4.143 4.719l2.808-2.849zM6.333 17.702c-0.997-1.366-1.776-2.597-2.352-3.697l-3.544 1.855c0.69 1.318 1.583 2.719 2.665 4.201l3.231-2.359zM3.981 14.005c-0.596-1.138-1.019-2.127-1.292-2.973l-3.808 1.225c0.36 1.12 0.886 2.323 1.556 3.603l3.544-1.855zM2.689 11.031c-0.297-0.923-0.481-1.666-0.573-2.243l-3.951 0.627c0.134 0.846 0.38 1.799 0.716 2.842l3.808-1.225zM2.117 8.788c-0.105-0.661-0.125-1.057-0.114-1.253l-3.994-0.222c-0.034 0.617 0.036 1.34 0.157 2.102l3.951-0.627zM2.003 7.535c0.020-0.361 0.037-0.671 0.037-0.789h-4c0-0.037 0.001-0.056-0-0.015-0.001 0.026-0.003 0.065-0.006 0.119-0.005 0.107-0.014 0.261-0.025 0.463l3.994 0.222zM2.019 7.029c0.012-0.087 0.045-0.212 0.126-0.379l-3.602-1.739c-0.235 0.488-0.406 1.007-0.484 1.553l3.96 0.566zM2.146 6.649c0.033-0.069 0.062-0.115 0.082-0.142s0.031-0.037 0.031-0.037l-2.676-2.973c-0.453 0.408-0.79 0.897-1.039 1.414l3.602 1.739zM2.335 6.397l4.508-4.508-2.828-2.828-4.508 4.508 2.828 2.828zM6.844 1.889c0.005-0.005-0.028 0.029-0.104 0.062-0.080 0.035-0.162 0.049-0.225 0.049v-4c-0.993 0-1.849 0.41-2.499 1.060l2.828 2.828zM6.514 2c-0.048 0-0.12-0.007-0.205-0.035s-0.159-0.068-0.216-0.111l2.4-3.2c-0.587-0.44-1.272-0.654-1.98-0.654v4zM6.094 1.854c0.025 0.019 0.054 0.047 0.089 0.101l3.375-2.147c-0.282-0.443-0.637-0.833-1.064-1.153l-2.4 3.2zM6.101 1.814l3.627 6.881 3.539-1.865-3.627-6.881-3.539 1.865zM9.754 8.743c-0.015-0.027-0.034-0.073-0.042-0.13-0.008-0.055-0.001-0.085-0.003-0.076l3.914 0.824c0.184-0.874 0.072-1.769-0.383-2.579l-3.486 1.961zM9.71 8.537c-0.009 0.044-0.019 0.063-0.021 0.067s-0.004 0.007-0.012 0.016l2.828 2.828c0.584-0.584 0.954-1.3 1.119-2.087l-3.914-0.824zM9.676 8.62l-1.661 1.661 2.828 2.828 1.661-1.661-2.828-2.828zM8.015 10.281c-0.366 0.366-0.528 0.78-0.602 1.002l3.795 1.265c-0.010 0.029-0.034 0.096-0.081 0.184-0.046 0.086-0.134 0.227-0.283 0.377l-2.828-2.828zM7.413 11.283c-0.067 0.202-0.153 0.516-0.153 0.887h4c0 0.128-0.015 0.224-0.026 0.278-0.011 0.056-0.022 0.090-0.026 0.1l-3.795-1.265zM7.295 12.544c0.138 0.726 0.428 1.458 0.799 2.174l3.551-1.841c-0.262-0.504-0.379-0.858-0.421-1.081l-3.929 0.748zM8.081 14.691c0.34 0.679 0.827 1.439 1.424 2.262l3.239-2.347c-0.534-0.736-0.882-1.299-1.085-1.704l-3.578 1.789zM9.505 16.953c0.656 0.905 1.544 1.891 2.628 2.951l2.797-2.859c-0.995-0.974-1.712-1.784-2.186-2.439l-3.239 2.347zM12.101 19.873c1.061 1.085 2.051 1.977 2.964 2.642l2.356-3.233c-0.669-0.488-1.487-1.212-2.46-2.206l-2.859 2.797zM15.065 22.515c0.829 0.604 1.586 1.096 2.251 1.436l1.819-3.562c-0.397-0.203-0.963-0.558-1.715-1.106l-2.355 3.233zM17.316 23.951c0.559 0.285 1.171 0.558 1.739 0.672l0.782-3.923c0.026 0.005-0.020-0.002-0.161-0.059-0.133-0.053-0.311-0.135-0.541-0.252l-1.819 3.562zM19.054 24.622l0.424 0.085 0.785-3.922-0.424-0.085-0.785 3.922zM19.87 24.746c0.402 0 0.751-0.119 0.852-0.153l-1.264-3.795c-0.014 0.005 0.007-0.003 0.051-0.013 0.023-0.005 0.064-0.014 0.117-0.021 0.050-0.007 0.136-0.017 0.244-0.017v4zM20.724 24.592c0.22-0.074 0.635-0.236 1.001-0.602l-2.829-2.828c0.15-0.15 0.292-0.237 0.377-0.283 0.088-0.047 0.155-0.071 0.183-0.081l1.267 3.794zM21.737 23.978l1.932-1.966-2.853-2.804-1.932 1.966 2.853 2.804zM23.571 22.105c0.019-0.017 0.032-0.025 0.038-0.029 0.003-0.002 0.005-0.003 0.006-0.003s0.001-0.001 0.001-0.001 0-0 0.001-0 0.003-0.001 0.006-0.001 0.020-0.003 0.044-0.003v-4c-1.034 0-1.981 0.362-2.752 1.047l2.656 2.991zM23.667 22.068c0.078 0 0.101 0.007 0.083 0.003-0.020-0.004-0.095-0.024-0.197-0.085l2.059-3.43c-0.648-0.389-1.354-0.489-1.945-0.489v4zM24.582 22.271h0.034v-4h-0.034v4zM23.599 21.993l6.542 3.864 2.034-3.444-6.542-3.864-2.034 3.444zM30.105 25.836c0.068 0.042 0.060 0.051 0.027 0.008-0.017-0.022-0.035-0.052-0.052-0.089s-0.028-0.075-0.035-0.107l3.922-0.785c-0.222-1.107-0.918-1.908-1.756-2.427l-2.106 3.401z"></path>
</symbol>
<symbol id="icon-twitter" viewBox="0 0 32 32">
<path d="M32 6.078c-1.19.522-2.458.868-3.78 1.036a6.523 6.523 0 0 0 2.886-3.626 13.11 13.11 0 0 1-4.16 1.588A6.574 6.574 0 0 0 22.154 3c-3.632 0-6.556 2.948-6.556 6.562 0 .52.044 1.02.152 1.496-5.454-.266-10.28-2.88-13.522-6.862a6.605 6.605 0 0 0-.898 3.316 6.57 6.57 0 0 0 2.914 5.452 6.479 6.479 0 0 1-2.964-.808v.072c0 3.188 2.274 5.836 5.256 6.446a6.548 6.548 0 0 1-1.72.216 5.8 5.8 0 0 1-1.242-.112c.85 2.598 3.262 4.508 6.13 4.57a13.182 13.182 0 0 1-8.134 2.798c-.538 0-1.054-.024-1.57-.09A18.469 18.469 0 0 0 10.064 29c12.072 0 18.672-10 18.672-18.668 0-.29-.01-.57-.024-.848A13.087 13.087 0 0 0 32 6.078z"/>
</symbol>
<symbol id="icon-facebook" viewBox="0 0 32 32">
<path d="M21.329 5.313h2.921V.225C23.746.156 22.013 0 19.994 0c-4.212 0-7.097 2.649-7.097 7.519V12H8.249v5.688h4.648V32h5.699V17.689h4.46l.708-5.688h-5.169V8.082c.001-1.644.444-2.769 2.735-2.769z"/>
</symbol>
<symbol id="icon-linkedin" viewBox="0 0 32 32">
<path d="M31.992 32v-.001H32V20.263c0-5.741-1.236-10.164-7.948-10.164-3.227 0-5.392 1.771-6.276 3.449h-.093v-2.913h-6.364v21.364h6.627V21.42c0-2.785.528-5.479 3.977-5.479 3.399 0 3.449 3.179 3.449 5.657v10.401h6.62zM.528 10.636h6.635V32H.528V10.636zM3.843 0C1.722 0 0 1.721 0 3.843s1.721 3.879 3.843 3.879c2.121 0 3.843-1.757 3.843-3.879A3.846 3.846 0 0 0 3.843 0z"/>
</symbol>
<symbol id="icon-pinterest" viewBox="0 0 24 32">
<path d="M12.504 0c-8.312 0-12.502 5.932-12.502 10.88 0 2.995 1.139 5.659 3.582 6.653 0.401 0.163 0.76 0.005 0.876-0.436 0.081-0.305 0.273-1.076 0.357-1.398 0.118-0.436 0.072-0.589-0.251-0.97-0.706-0.827-1.155-1.898-1.155-3.416 0-4.401 3.308-8.34 8.613-8.34 4.697 0 7.277 2.858 7.277 6.673 0 5.022-2.232 9.26-5.546 9.26-1.829 0-3.198-1.507-2.76-3.355 0.527-2.205 1.544-4.586 1.544-6.179 0-1.425-0.768-2.614-2.36-2.614-1.869 0-3.372 1.927-3.372 4.507 0 1.645 0.557 2.757 0.557 2.757s-1.915 8.074-2.25 9.489c-0.669 2.816-0.099 6.269-0.052 6.619 0.029 0.205 0.295 0.254 0.416 0.099 0.172-0.226 2.4-2.963 3.158-5.699 0.214-0.775 1.229-4.787 1.229-4.787 0.608 1.154 2.385 2.171 4.273 2.171 5.624 0 9.438-5.105 9.438-11.936 0-5.165-4.394-9.977-11.074-9.977z"></path>
</symbol>
<symbol id="icon-arrow-left" viewBox="0 0 64 32">
<path d="M64 16c0-0.982-0.796-1.778-1.778-1.778h-56.889c-0.982 0-1.778 0.796-1.778 1.778s0.796 1.778 1.778 1.778h56.889c0.982 0 1.778-0.796 1.778-1.778z"></path>
<path d="M19.035 2.298c-0.694-0.694-1.82-0.694-2.514 0l-13.702 13.702 13.702 13.701c0.694 0.694 1.82 0.694 2.514 0s0.694-1.82 0-2.514l-11.187-11.187 11.187-11.187c0.694-0.694 0.694-1.82 0-2.514z"></path>
</symbol>
</defs>
</svg>
